# Blender v2.79 (sub 0) OBJ File: 'hamster.blend'
# www.blender.org
mtllib hamster_less.mtl
o hamster
v -0.260950 -0.051311 0.177594
v -0.225219 -0.092437 0.160334
v -0.219860 -0.089004 0.157850
v -0.018845 -0.186370 0.430424
v -0.030921 -0.180199 0.433473
v -0.036071 -0.170779 0.431274
v 0.000908 -0.196456 0.461277
v -0.129159 -0.134416 0.004144
v -0.138906 -0.158699 0.039527
v -0.067372 -0.190628 0.039396
v 0.257061 -0.051424 0.177586
v 0.022291 -0.184611 0.428652
v 0.008211 -0.191468 0.430069
v 0.001258 -0.183912 0.426186
v 0.125313 -0.134599 0.004162
v 0.134635 -0.158513 0.039514
v 0.148695 -0.190544 0.022188
v 0.077597 -0.222680 0.022289
v 0.052836 -0.165943 0.004313
v 0.029316 -0.184519 0.437806
v -0.020507 -0.187152 0.452923
v -0.027150 -0.176635 0.452001
v -0.241966 0.078470 0.219390
v -0.081121 0.229453 0.394283
v -0.153723 -0.077011 0.307056
v -0.144394 0.010714 0.473131
v -0.101517 0.056645 0.557587
v -0.073761 -0.114359 0.379259
v -0.027148 -0.161192 0.397323
v -0.103860 -0.078566 0.373026
v 0.152927 0.198313 0.386354
v 0.152901 -0.076325 0.304040
v 0.135533 0.002310 0.472629
v 0.097975 0.056276 0.556793
v 0.044202 0.068308 0.577067
v 0.069826 -0.114378 0.379259
v 0.029669 -0.161200 0.397323
v 0.099936 -0.078593 0.373026
v 0.001267 -0.115654 0.360540
v 0.001261 -0.157997 0.385999
v -0.002603 0.249966 0.401791
v 0.113993 -0.077258 0.355216
v 0.078972 0.228701 0.394287
v 0.244285 0.038798 0.286903
v 0.188169 0.260432 0.056879
v -0.144536 -0.086926 0.004168
v 0.259743 0.013979 0.255270
v 0.140711 -0.086640 0.004157
v 0.175947 -0.009524 0.324735
v -0.002059 -0.198943 0.057344
v 0.048985 -0.090231 0.355070
v -0.005347 -0.101021 0.340013
v 0.149936 -0.191292 0.004117
v -0.002002 -0.142010 0.276086
v -0.152691 -0.190485 0.022185
v 0.188051 -0.120441 0.057064
v 0.063223 -0.190918 0.039147
v -0.119666 -0.076991 0.352728
v -0.192181 -0.120331 0.057322
v -0.171194 -0.101352 0.197260
v -0.271237 0.070210 0.057103
v -0.001968 -0.119787 0.312830
v -0.241496 0.045864 0.210771
v 0.183823 0.142440 0.366007
v -0.001691 -0.137449 0.004155
v 0.061978 -0.098601 0.326000
v -0.240933 0.015806 0.202530
v -0.065907 -0.098584 0.326000
v 0.071864 0.257778 0.276336
v 0.179214 -0.074200 0.245048
v -0.002233 0.077429 0.592235
v -0.182271 0.048388 0.408890
v 0.241161 -0.067880 0.140961
v -0.208432 0.070034 0.004139
v 0.012377 -0.192920 0.456288
v -0.147933 0.216036 0.004152
v -0.245052 -0.067739 0.140982
v -0.124427 -0.033565 0.422507
v -0.263604 0.014335 0.255559
v 0.140642 0.011007 0.473381
v 0.267275 0.070001 0.057033
v -0.129261 0.127786 0.471901
v 0.236426 -0.038642 0.166239
v -0.081670 -0.222929 0.004112
v 0.125392 0.127752 0.471901
v -0.002274 0.294376 0.250908
v -0.240588 -0.041810 0.164377
v 0.167479 -0.101120 0.197700
v 0.216967 0.084664 0.343938
v 0.025604 -0.185075 0.451117
v 0.231280 -0.067743 0.193098
v 0.178380 0.048339 0.408890
v -0.153836 -0.191069 0.004137
v -0.202954 -0.057630 0.205722
v -0.244626 0.026305 0.218838
v -0.235746 -0.067220 0.194074
v 0.215935 -0.089129 0.157900
v 0.221524 -0.092326 0.160225
v -0.048826 0.068078 0.576519
v -0.001914 0.276496 0.004158
v 0.247748 -0.075041 0.146287
v -0.251885 -0.074907 0.146064
v 0.120514 -0.033598 0.422507
v 0.237557 0.018314 0.202923
v -0.219675 0.084992 0.345458
v -0.187688 0.142489 0.366007
v -0.215157 -0.063389 0.181918
v -0.252647 -0.039685 0.179466
v -0.156307 0.199218 0.386228
v -0.253819 0.017132 0.235200
v 0.185954 -0.075608 0.202367
v -0.192164 0.260369 0.056974
v -0.001882 0.339243 0.057077
v -0.070421 0.257799 0.285494
v 0.249920 0.017064 0.235201
v 0.237769 0.053643 0.212867
v 0.199342 -0.056824 0.205815
v 0.211395 -0.063740 0.181323
v -0.219615 -0.006915 0.206670
v -0.002190 -0.172211 0.180684
v 0.142613 -0.113391 0.016100
v 0.219513 -0.049984 0.253417
v 0.204548 0.069979 0.004139
v 0.039241 -0.181560 0.032243
v 0.144088 0.215997 0.004152
v 0.198898 -0.060892 0.239312
v 0.188783 -0.070626 0.219388
v 0.227477 0.078222 0.290592
v -0.150147 -0.135624 0.032602
v -0.237188 0.057353 0.310040
v -0.232490 0.069824 0.291922
v -0.246381 0.035496 0.250297
v -0.223572 -0.049735 0.253218
v -0.040413 -0.167928 0.016559
v -0.180060 -0.009306 0.324508
v -0.186813 -0.079829 0.201602
v -0.183311 -0.072766 0.252496
v -0.081615 -0.222803 0.022244
v -0.056774 -0.166029 0.004225
v 0.077699 -0.222932 0.004113
v -0.202819 -0.060839 0.239312
v -0.031409 -0.181445 0.034701
v -0.206249 0.165136 0.201097
v -0.233897 0.080117 0.267551
v -0.249313 -0.038641 0.213160
v -0.248763 -0.012481 0.197396
v -0.146547 -0.113352 0.016100
v 0.033512 0.257521 0.333425
v 0.023476 -0.165258 0.019484
v 0.217042 0.138009 0.186244
v 0.238051 0.078385 0.219734
v 0.235939 0.052860 0.266398
v 0.236774 0.053061 0.233125
v 0.240730 0.026240 0.218838
v 0.240960 -0.044537 0.213169
v 0.244856 -0.012547 0.197396
v 0.146193 -0.136317 0.032977
v -0.201777 -0.047677 0.204163
v 0.220559 0.011561 0.209118
v 0.203582 -0.037593 0.205060
v 0.248733 -0.039752 0.179466
v 0.244363 0.031845 0.250214
vn 0.3705 0.1866 -0.9099
vn -0.1531 0.4107 -0.8988
vn -0.5048 0.3017 -0.8088
vn -0.9868 0.1155 0.1133
vn -0.2555 -0.6931 -0.6740
vn -0.2008 0.0028 -0.9796
vn -0.0266 -0.9993 -0.0248
vn -0.0006 -0.9688 0.2477
vn -0.7472 -0.6269 -0.2207
vn -0.7313 -0.4669 -0.4973
vn -0.6361 -0.7518 0.1739
vn -0.0840 0.6271 -0.7744
vn -0.9621 -0.2230 -0.1570
vn 0.2350 -0.7113 -0.6624
vn 0.9863 0.1363 0.0933
vn 0.5354 0.2731 -0.7992
vn -0.3322 0.2194 -0.9173
vn 0.0765 -0.0017 -0.9971
vn 0.7316 -0.4597 -0.5034
vn 0.2167 -0.9108 0.3513
vn 0.1364 -0.8503 0.5083
vn 0.0028 -0.8430 0.5379
vn 0.3513 0.3711 -0.8596
vn 0.6366 -0.7510 0.1753
vn 0.5482 -0.7231 0.4203
vn 0.0005 -0.9299 0.3679
vn 0.9483 -0.2646 -0.1752
vn 0.7471 -0.6263 -0.2225
vn 0.0702 0.6140 -0.7862
vn -0.5454 -0.7243 0.4217
vn 0.2468 -0.5111 -0.8234
vn 0.2502 -0.5091 -0.8235
vn 0.2728 -0.4958 -0.8245
vn -0.2178 -0.9100 0.3528
vn -0.2457 -0.9474 0.2050
vn -0.1472 -0.8613 0.4862
vn 0.0103 -0.7668 -0.6418
vn -0.3472 -0.5184 -0.7815
vn -0.3745 -0.4555 -0.8076
vn -0.2331 -0.5189 -0.8224
vn -0.2376 -0.5164 -0.8228
vn -0.2139 -0.5296 -0.8209
vn 0.2424 -0.9477 0.2075
vn 0.5246 -0.7948 0.3051
vn 0.1057 -0.7682 -0.6314
vn 0.2907 -0.5730 -0.7662
vn 0.1015 -0.9430 0.3169
vn 0.2342 -0.5182 -0.8225
vn -0.5282 -0.7908 0.3092
vn -0.2729 -0.4957 -0.8245
vn 0.3868 -0.4642 -0.7968
vn 0.3252 -0.5143 -0.7936
vn -0.8610 -0.4375 0.2594
vn -0.8372 -0.4797 0.2627
vn -0.8719 -0.4165 0.2576
vn 0.4268 -0.0625 -0.9022
vn 0.7776 -0.3059 -0.5493
vn -0.2956 -0.7637 -0.5738
vn -0.7772 -0.3019 -0.5521
vn -0.8155 -0.3649 0.4492
vn -0.4244 -0.0618 -0.9033
vn -0.7262 -0.5278 0.4405
vn 0.2814 -0.8599 0.4258
vn 0.1224 -0.6658 0.7360
vn 0.2152 -0.0951 -0.9719
vn 0.2951 -0.7626 -0.5756
vn 0.7342 -0.5436 0.4068
vn 0.8138 -0.3622 0.4544
vn -0.2830 -0.8580 0.4287
vn -0.1579 -0.8779 0.4521
vn -0.2543 -0.3471 -0.9027
vn 0.0503 0.1890 -0.9807
vn -0.0293 -0.9995 0.0075
vn -0.7864 -0.4886 -0.3780
vn 0.7973 -0.4777 -0.3689
vn 0.0722 -0.9970 0.0267
vn -0.0831 0.2350 -0.9684
vn -0.2639 -0.8638 0.4292
vn -0.8258 -0.4984 0.2639
vn 0.7321 -0.4843 -0.4790
vn -0.7525 -0.4306 -0.4982
vn -0.9159 0.1575 -0.3693
vn -0.6095 0.5077 -0.6088
vn 0.2477 -0.8682 0.4300
vn 0.6178 0.5103 -0.5982
vn 0.9252 0.1610 -0.3437
vn 0.3456 -0.8030 -0.4855
vn 0.4855 -0.7946 -0.3646
vn 0.0939 -0.5202 -0.8489
vn -0.4767 -0.6299 -0.6132
vn -0.4169 -0.4166 -0.8079
vn -0.3365 -0.9319 -0.1355
vn 0.4872 -0.7945 0.3624
vn 0.0696 -0.9923 -0.1025
vn 0.6213 -0.6902 0.3710
vn -0.2687 -0.7700 -0.5788
vn -0.0230 -0.6893 -0.7241
vn 0.1571 -0.9493 0.2723
vn -0.3122 -0.9417 -0.1256
vn 0.6692 -0.7415 0.0484
vn -0.8964 0.4318 -0.1003
vn -0.9804 0.0549 0.1894
vn -0.9135 0.0154 0.4065
vn 0.0007 0.9742 0.2256
vn -0.0019 0.9698 0.2439
vn 0.3677 0.9047 0.2149
vn 0.8747 0.4677 -0.1269
vn 0.8003 0.5395 -0.2616
vn 0.8555 0.4184 -0.3051
vn 0.6296 -0.4538 -0.6306
vn 0.6810 -0.2955 -0.6701
vn 0.8169 0.3710 -0.4416
vn 0.4141 -0.0001 -0.9102
vn 0.3420 -0.1377 -0.9296
vn 0.2928 0.2924 -0.9104
vn 0.4551 0.4560 -0.7648
vn 0.5967 -0.7836 0.1731
vn 0.6940 -0.7179 0.0544
vn 0.6506 0.6388 0.4107
vn 0.9446 0.2923 0.1495
vn 0.9045 0.3971 0.1555
vn -0.6320 -0.4452 -0.6343
vn -0.6801 -0.2959 -0.6707
vn -0.9469 0.2137 -0.2402
vn -0.8568 0.4123 -0.3097
vn -0.9034 0.3985 0.1584
vn -0.9532 -0.0034 -0.3024
vn 0.1818 -0.7144 -0.6757
vn 0.2864 -0.7536 -0.5916
vn 0.3808 -0.6619 -0.6457
vn -0.8736 0.3395 0.3487
vn -0.8799 0.3562 0.3145
vn 0.1270 -0.7982 -0.5888
vn 0.1546 -0.6747 -0.7217
vn 0.2787 -0.6748 -0.6834
vn -0.3413 -0.1387 -0.9297
vn -0.0687 -0.1636 -0.9841
vn -0.6823 0.7026 0.2020
vn -0.9460 0.2984 0.1268
vn -0.6854 -0.5855 0.4329
vn -0.7376 -0.5513 0.3898
vn -0.6164 -0.6870 0.3849
vn -0.8052 0.3840 -0.4518
vn 0.6189 -0.6864 0.3820
vn -0.1831 -0.7489 -0.6369
vn 0.6446 -0.0005 -0.7645
vn 0.7369 -0.4589 0.4963
vn 0.6467 -0.4171 0.6386
vn 0.9500 0.2214 -0.2203
vn 0.9898 0.1385 0.0342
vn 0.7336 -0.5635 0.3798
vn 0.6893 -0.4588 0.5606
vn 0.6827 -0.5950 0.4241
vn 0.0000 0.6446 -0.7645
vn 0.0000 0.4141 -0.9102
vn -0.6265 -0.7386 -0.2488
vn 0.5650 -0.8223 -0.0671
vn -0.2851 -0.6630 0.6922
vn -0.4135 0.0013 -0.9105
vn -0.5634 -0.8261 -0.0110
vn -0.5679 -0.8010 0.1893
vn -0.7747 -0.5807 0.2503
vn -0.7650 -0.6021 0.2286
vn -0.8120 -0.5588 0.1685
vn -0.6468 0.6417 0.4122
vn -0.3236 0.8335 0.4479
vn -0.3584 0.9065 0.2232
vn -0.2927 0.2928 -0.9103
vn 0.8580 0.5118 -0.0428
vn 0.3485 0.1524 0.9248
vn 0.9303 0.3667 0.0057
vn 0.8920 0.4384 0.1104
vn 0.2828 0.9256 0.2517
vn 0.3124 0.9184 0.2429
vn -0.7372 -0.4578 0.4970
vn -0.7804 -0.4312 0.4528
vn -0.9665 0.0509 -0.2516
vn -0.9456 0.3083 0.1035
vn 0.8862 0.4429 0.1358
vn 0.6804 0.7045 0.2020
vn 0.3284 0.8305 0.4498
vn 0.8424 -0.5356 -0.0588
vn 0.6207 -0.6817 -0.3873
vn 0.1502 -0.8256 -0.5439
vn -0.1107 0.8300 0.5467
vn -0.0049 0.2312 0.9729
vn 0.6548 0.4455 0.6106
vn -0.8182 -0.1662 0.5504
vn -0.7929 -0.5301 0.3006
vn -0.8426 -0.1595 0.5145
vn -0.4528 -0.4263 0.7831
vn -0.3517 0.1496 0.9241
vn -0.4831 -0.4244 0.7658
vn -0.8215 -0.5697 -0.0227
vn -0.7443 -0.6476 -0.1631
vn -0.8521 -0.5207 0.0526
vn -0.8260 0.1622 0.5399
vn -0.6474 0.4481 0.6165
vn -0.8315 -0.4884 0.2648
vn -0.6541 -0.3883 0.6492
vn -0.3626 0.1823 0.9140
vn 0.7290 -0.4807 0.4873
vn 0.6649 -0.4578 0.5902
vn 0.8853 -0.1740 0.4312
vn 0.8217 0.2275 0.5225
vn 0.7810 -0.5607 0.2751
vn 0.5787 -0.7086 0.4037
vn 0.7687 -0.6004 0.2205
vn 0.7640 -0.6027 0.2303
vn 0.7830 -0.5915 0.1924
vn 0.9046 0.0820 0.4182
vn 0.8127 -0.5113 0.2793
vn 0.8455 -0.2040 0.4934
vn -0.4557 0.4562 -0.7644
vn 0.9834 -0.0086 0.1810
vn 0.6387 -0.4211 0.6440
vn -0.7642 -0.6025 0.2303
vn 0.3802 0.1662 0.9098
vn -0.2392 -0.8175 -0.5239
vn -0.6358 -0.6828 -0.3599
vn -0.0001 -0.8404 -0.5419
vn -0.8199 -0.5358 0.2015
vn -0.5885 -0.7243 -0.3592
vn -0.5839 -0.7065 0.3998
vn -0.6847 -0.3778 0.6233
vn 0.8736 -0.0658 0.4822
vn 0.8187 -0.5516 0.1597
usemtl FFCC88.002
s 1
f 119//1 67//2 63//3
f 119//1 63//3 23//4
f 94//5 119//1 158//6
f 50//7 120//8 59//9
f 94//5 158//6 136//10
f 158//6 23//4 60//11
f 83//12 118//13 117//14
f 151//15 116//16 159//17
f 160//18 117//14 111//19
f 66//20 52//21 62//22
f 83//12 117//14 104//23
f 160//18 104//23 117//14
f 88//24 32//25 54//26
f 94//5 67//2 119//1
f 94//5 107//27 67//2
f 158//6 119//1 23//4
f 136//10 158//6 60//11
f 54//26 120//8 88//24
f 120//8 50//7 56//28
f 88//24 151//15 159//17
f 88//24 160//18 111//19
f 88//24 159//17 160//18
f 160//18 159//17 104//23
f 159//17 116//16 104//23
f 59//9 120//8 60//11
f 67//2 107//27 87//29
f 54//26 25//30 60//11
f 39//31 37//32 40//33
f 62//22 68//34 54//26
f 30//35 68//34 52//36
f 52//37 28//38 30//39
f 39//40 29//41 28//42
f 38//43 66//20 42//44
f 39//45 52//37 51//46
f 66//20 54//26 32//25
f 68//34 25//30 54//26
f 42//44 66//20 32//25
f 68//34 62//22 52//36
f 60//11 120//8 54//26
f 120//8 56//28 88//24
f 66//20 51//47 52//21
f 39//31 36//48 37//32
f 30//35 58//49 68//34
f 52//37 39//45 28//38
f 39//40 40//50 29//41
f 38//43 51//47 66//20
f 38//51 36//52 51//46
f 36//52 39//45 51//46
f 66//20 62//22 54//26
f 68//34 58//49 25//30
usemtl F8BBD0.002
f 5//53 22//54 6//55
f 15//56 53//57 140//58
f 93//59 55//60 8//61
f 55//60 9//62 8//61
f 55//60 93//59 138//63
f 55//60 10//64 9//62
f 10//64 138//63 139//65
f 84//66 8//61 139//65
f 16//67 17//68 15//56
f 17//68 18//69 53//57
f 57//70 17//68 16//67
f 57//70 19//71 18//69
f 15//56 140//58 19//71
f 18//69 17//68 57//70
f 73//72 98//73 97//74
f 3//75 2//76 77//77
f 96//78 2//76 3//75
f 73//72 118//13 83//12
f 5//53 21//79 22//54
f 15//56 17//68 53//57
f 84//66 93//59 8//61
f 139//65 138//63 84//66
f 55//60 138//63 10//64
f 138//63 93//59 84//66
f 18//69 19//71 140//58
f 73//72 101//80 98//73
f 96//78 3//75 107//27
f 77//77 2//76 102//81
f 1//82 108//83 87//29
f 107//27 77//77 87//29
f 101//80 91//84 98//73
f 83//12 161//85 11//86
f 118//13 98//73 91//84
f 12//87 20//88 13//89
f 5//90 6//91 4//92
f 75//93 13//94 90//95
f 102//81 96//78 1//82
f 140//58 53//57 18//69
f 73//72 97//74 118//13
f 87//29 77//77 102//81
f 102//81 1//82 87//29
f 107//27 3//75 77//77
f 101//80 11//86 91//84
f 11//86 101//80 73//72
f 73//72 83//12 11//86
f 118//13 97//74 98//73
f 4//96 14//97 13//89
f 14//97 12//87 13//89
f 75//93 7//98 13//94
f 7//98 21//99 13//94
f 21//99 5//90 4//92
f 4//92 13//94 21//99
f 13//94 20//100 90//95
f 102//81 2//76 96//78
usemtl 795548.002
f 132//101 79//102 130//103
f 113//104 86//105 69//106
f 162//107 47//108 115//109
f 157//110 16//67 15//56
f 157//110 15//56 121//111
f 156//112 161//85 83//12
f 123//113 48//114 125//115
f 123//113 125//115 45//116
f 70//117 111//19 127//118
f 31//119 128//120 150//121
f 8//61 129//122 147//123
f 95//124 110//125 132//101
f 23//4 143//126 61//127
f 142//128 139//129 134//130
f 106//131 143//126 105//132
f 10//133 142//128 50//134
f 142//128 65//135 50//134
f 46//136 65//137 8//61
f 112//138 86//105 113//104
f 23//4 63//3 144//139
f 1//140 145//141 79//102
f 145//141 133//142 79//102
f 95//124 146//143 110//125
f 67//2 146//143 95//124
f 133//142 96//78 107//27
f 139//65 8//61 65//137
f 8//61 147//123 46//136
f 88//24 70//117 32//25
f 88//24 111//19 70//117
f 70//117 122//144 32//25
f 65//137 124//145 50//7
f 56//28 48//114 123//113
f 56//28 123//113 81//146
f 32//25 122//144 49//147
f 49//147 122//144 89//148
f 116//16 154//149 104//23
f 153//150 162//107 154//149
f 122//144 155//151 47//152
f 155//151 11//153 47//152
f 115//109 47//108 156//112
f 104//23 156//112 83//12
f 50//7 57//70 56//28
f 57//70 16//67 56//28
f 56//28 157//110 121//111
f 121//111 15//56 48//114
f 113//154 125//115 100//155
f 117//14 118//13 122//144
f 156//112 11//86 161//85
f 155//151 91//84 11//153
f 151//15 88//24 56//28
f 149//156 19//71 124//145
f 126//157 117//14 122//144
f 127//118 126//157 70//117
f 9//62 10//64 50//158
f 94//5 133//142 107//27
f 146//143 1//82 79//102
f 46//136 48//114 65//137
f 74//159 48//114 46//136
f 46//136 147//123 59//9
f 134//130 139//129 65//135
f 141//160 136//10 137//161
f 78//162 28//163 26//164
f 143//126 109//165 112//138
f 132//101 110//125 79//102
f 109//165 24//166 114//167
f 129//122 8//61 9//62
f 127//118 111//19 117//14
f 76//168 125//115 48//114
f 162//107 44//169 47//108
f 90//95 35//170 75//93
f 69//106 31//119 113//104
f 100//155 125//115 76//168
f 122//144 91//84 155//151
f 154//149 162//107 115//109
f 44//169 152//171 89//172
f 149//156 65//137 19//71
f 41//173 148//174 86//105
f 109//165 114//167 112//138
f 146//143 87//29 108//83
f 112//138 114//167 86//105
f 23//4 144//139 143//126
f 133//142 141//160 137//161
f 137//161 136//10 60//11
f 25//30 58//49 135//175
f 59//9 61//127 46//136
f 10//133 139//129 142//128
f 65//135 142//128 134//130
f 59//9 60//11 23//4
f 61//127 74//159 46//136
f 76//168 48//114 74//159
f 59//9 23//4 61//127
f 135//175 105//176 133//142
f 25//30 135//175 133//142
f 63//3 95//124 132//101
f 63//3 67//177 95//124
f 130//103 131//178 132//101
f 145//141 96//78 133//142
f 67//2 87//29 146//143
f 110//125 146//143 79//102
f 59//9 129//122 9//62
f 59//9 147//123 129//122
f 89//172 128//120 64//179
f 42//44 32//25 49//147
f 70//117 126//157 122//144
f 45//116 81//146 123//113
f 50//7 124//145 57//70
f 65//137 149//156 124//145
f 124//145 19//71 57//70
f 113//154 45//116 125//115
f 152//171 128//120 89//172
f 116//16 153//150 154//149
f 153//150 152//171 162//107
f 104//23 154//149 156//112
f 154//149 115//109 156//112
f 122//144 118//13 91//84
f 45//180 113//104 31//119
f 69//106 43//181 31//119
f 65//137 15//56 19//71
f 157//110 56//28 16//67
f 156//112 47//108 11//86
f 31//119 150//121 45//180
f 43//181 148//174 41//173
f 48//114 56//28 121//111
f 126//157 127//118 117//14
f 64//179 128//120 31//119
f 146//143 108//83 1//82
f 145//141 1//140 96//78
f 141//160 94//5 136//10
f 141//160 133//142 94//5
f 143//126 106//131 109//165
f 36//182 20//100 37//183
f 37//184 12//87 14//97
f 35//170 41//185 71//186
f 85//187 43//181 35//170
f 26//188 22//189 27//190
f 7//191 99//192 21//193
f 28//194 6//195 26//196
f 106//131 72//197 82//198
f 24//166 99//192 41//185
f 135//175 78//162 72//199
f 82//198 24//166 109//165
f 22//200 99//192 27//201
f 90//95 33//202 34//203
f 7//98 35//170 71//186
f 92//204 64//205 85//187
f 103//206 38//207 42//44
f 36//208 38//209 103//210
f 34//211 33//212 80//213
f 144//139 132//101 131//178
f 43//181 69//106 148//174
f 130//103 105//132 131//178
f 76//168 61//127 112//214
f 133//142 130//103 79//102
f 41//185 86//105 114//167
f 41//185 114//167 24//166
f 143//126 144//139 105//132
f 60//11 25//30 137//161
f 137//161 25//30 133//142
f 100//155 112//214 113//154
f 143//126 112//138 61//127
f 133//142 105//176 130//103
f 131//178 105//132 144//139
f 151//15 153//150 116//16
f 50//158 59//9 9//62
f 128//120 151//15 150//121
f 86//105 148//174 69//106
f 151//15 56//28 81//215
f 151//15 81//215 150//121
f 150//121 81//215 45//180
f 44//216 89//148 122//144
f 47//152 44//216 122//144
f 152//171 153//150 128//120
f 15//56 65//137 48//114
f 44//169 162//107 152//171
f 78//162 30//217 28//163
f 90//95 34//218 35//170
f 36//182 33//202 20//100
f 14//97 4//96 29//219
f 4//96 6//220 29//219
f 29//219 40//221 14//97
f 40//221 37//184 14//97
f 37//184 20//88 12//87
f 35//170 43//181 41//185
f 35//170 34//218 85//187
f 85//187 31//119 43//181
f 26//188 6//222 22//189
f 7//191 71//186 99//192
f 28//194 29//223 6//195
f 106//131 105//132 72//197
f 72//197 26//188 82//198
f 26//188 27//190 82//198
f 82//198 109//165 106//131
f 27//201 99//192 24//166
f 99//192 71//186 41//185
f 72//199 105//176 135//175
f 135//175 58//49 78//162
f 58//49 30//224 78//162
f 78//162 26//164 72//199
f 82//198 27//201 24//166
f 22//200 21//225 99//192
f 90//95 20//100 33//202
f 7//98 75//93 35//170
f 34//211 80//213 85//187
f 80//213 92//204 85//187
f 92//204 89//226 64//205
f 64//205 31//119 85//187
f 42//44 49//147 103//206
f 49//147 89//226 92//204
f 103//206 49//147 92//204
f 92//204 80//227 103//206
f 80//213 33//212 103//210
f 33//212 36//208 103//210
f 144//139 63//3 132//101
f 76//168 74//159 61//127
f 100//155 76//168 112//214
f 151//15 128//120 153//150
