# Blender v2.79 (sub 0) OBJ File: 'hamster.blend'
# www.blender.org
mtllib hamster.mtl
o Cube.026_Cube.024
v -0.141973 -0.017467 0.003162
v -0.141973 -0.017467 0.035293
v -0.109642 -0.017467 0.035293
v -0.109642 -0.017467 0.003162
v -0.109642 0.014864 0.035293
v -0.109642 0.014864 0.003162
v -0.141973 0.014864 0.035293
v -0.141973 0.014864 0.003162
v -0.218053 -0.003628 0.035293
v -0.208195 0.027163 0.035293
v 0.033935 -0.174152 0.118742
v 0.045363 -0.156760 0.128052
v 0.061644 -0.150129 0.106909
v 0.050216 -0.167521 0.097599
v 0.059324 -0.146592 0.105220
v 0.045009 -0.163570 0.093813
v 0.027762 -0.160339 0.109882
v 0.042077 -0.143361 0.121290
v 0.043894 -0.157430 0.120063
v 0.060274 -0.147560 0.119533
v 0.059457 -0.145265 0.117506
v 0.043283 -0.147930 0.115199
v 0.042394 -0.154329 0.125682
v 0.041783 -0.144829 0.120818
v 0.057957 -0.142164 0.123125
v 0.058774 -0.144459 0.125152
v 0.123046 -0.013167 0.285779
v 0.113830 -0.024032 0.287526
v 0.120109 -0.020598 0.288993
v 0.126036 -0.008865 0.287487
v 0.128146 0.000855 0.308895
v 0.123309 0.010324 0.305120
v 0.128280 0.009018 0.304159
v 0.131356 0.000855 0.307413
v 0.090177 -0.086302 0.002755
v 0.105457 -0.092290 0.026404
v 0.127014 -0.101704 0.014813
v 0.127546 -0.102621 0.002755
v 0.148597 -0.054414 0.014813
v 0.148597 -0.054414 0.002755
v 0.127039 -0.045000 0.026404
v 0.111228 -0.038095 0.002755
v 0.033935 0.171550 0.118742
v 0.050216 0.164919 0.097599
v 0.061644 0.147526 0.106909
v 0.045363 0.154158 0.128053
v 0.059324 0.143990 0.105221
v 0.045009 0.160968 0.093813
v 0.027762 0.157736 0.109882
v 0.042077 0.140759 0.121290
v 0.043894 0.154827 0.120063
v 0.043283 0.145328 0.115199
v 0.059458 0.142663 0.117506
v 0.060274 0.144957 0.119533
v 0.042394 0.151726 0.125682
v 0.058774 0.141856 0.125152
v 0.057957 0.139562 0.123125
v 0.041783 0.142227 0.120818
v 0.123046 0.014877 0.285779
v 0.122582 0.000855 0.284135
v 0.127653 0.000855 0.286070
v 0.126036 0.010575 0.287487
v 0.090177 0.083700 0.002755
v 0.127546 0.100018 0.002756
v 0.127014 0.099102 0.014813
v 0.105457 0.089688 0.026404
v 0.148597 0.051812 0.002755
v 0.148597 0.051812 0.014813
v 0.127039 0.042398 0.026404
v 0.111228 0.035493 0.002755
v 0.123472 -0.015471 0.300905
v 0.128280 -0.007308 0.304159
v 0.120109 0.022308 0.288993
v 0.123472 0.017181 0.300905
v 0.123309 -0.008615 0.305120
v 0.113830 0.025741 0.287526
v 0.117732 0.019794 0.301345
v 0.117732 -0.018084 0.301345
v -0.052437 -0.161370 0.146580
v -0.150147 -0.114487 0.161795
v -0.133104 -0.103882 0.257500
v -0.056895 -0.146372 0.230523
v -0.173166 -0.057894 0.164946
v -0.196186 -0.001301 0.168097
v -0.165790 -0.001301 0.268674
v -0.153601 -0.052592 0.263087
v 0.050792 -0.103882 0.203546
v 0.067429 -0.114487 0.131366
v 0.037921 -0.135287 0.137561
v 0.033262 -0.149388 0.168267
v -0.001581 -0.092957 0.315086
v -0.035686 -0.066279 0.370452
v -0.042764 -0.033790 0.381943
v -0.049841 -0.001301 0.393433
v 0.076223 -0.049164 0.252846
v 0.107440 -0.018084 0.264892
v -0.037312 -0.068489 0.371686
v -0.007639 -0.096664 0.314658
v -0.051967 -0.001301 0.395251
v -0.044639 -0.034895 0.383469
v 0.052364 -0.069233 0.248689
v -0.173573 -0.128204 0.038004
v -0.046671 -0.180768 0.038004
v -0.046671 -0.138961 0.002755
v -0.144011 -0.098641 0.002755
v 0.132796 -0.001301 0.038004
v 0.090989 -0.001301 0.002755
v -0.199856 -0.064752 0.038004
v -0.164171 -0.049971 0.002755
v 0.080232 -0.128204 0.038004
v 0.050669 -0.098641 0.002755
v -0.088097 -0.042727 0.002755
v -0.096676 -0.022014 0.002755
v -0.005245 -0.042727 0.002755
v -0.046671 -0.059886 0.002755
v 0.011914 -0.001301 0.002755
v -0.046671 -0.001301 0.002755
v -0.105256 -0.001301 0.002755
v -0.226138 -0.001301 0.038004
v -0.009992 -0.175525 0.170970
v -0.011297 -0.160639 0.135031
v -0.042948 -0.049637 0.428542
v -0.051609 -0.004255 0.427660
v -0.037491 -0.019432 0.455693
v -0.030164 -0.062632 0.468969
v -0.034288 -0.083666 0.399808
v -0.022836 -0.086620 0.432127
v -0.184331 -0.001301 0.002755
v -0.052437 0.158768 0.146580
v -0.056895 0.143770 0.230523
v -0.133104 0.101280 0.257500
v -0.150147 0.111884 0.161795
v -0.173166 0.055292 0.164946
v -0.153601 0.049989 0.263087
v 0.050792 0.101280 0.203546
v 0.033262 0.146785 0.168267
v 0.037921 0.132685 0.137561
v 0.067429 0.111884 0.131366
v -0.001581 0.090355 0.315086
v -0.035686 0.063676 0.370452
v -0.042763 0.031187 0.381943
v 0.076223 0.046561 0.252846
v 0.107440 0.019794 0.264892
v -0.007639 0.094061 0.314658
v -0.037312 0.065887 0.371686
v -0.044639 0.032293 0.383469
v 0.052364 0.066631 0.248689
v -0.173573 0.125601 0.038004
v -0.144011 0.096039 0.002755
v -0.046671 0.136359 0.002755
v -0.046671 0.178166 0.038004
v -0.199856 0.062150 0.038004
v -0.164171 0.047369 0.002755
v 0.050669 0.096039 0.002755
v 0.080232 0.125601 0.038004
v -0.096676 0.019412 0.002755
v -0.088097 0.040125 0.002755
v -0.046671 0.057284 0.002755
v -0.005245 0.040125 0.002755
v -0.009992 0.172923 0.170970
v -0.011297 0.158037 0.135031
v -0.042948 0.047035 0.428542
v -0.030164 0.060029 0.468969
v -0.037491 0.016829 0.455693
v -0.051609 0.001653 0.427660
v -0.034288 0.081064 0.399808
v -0.022836 0.084017 0.432128
v 0.034727 -0.029621 0.320007
v 0.037431 -0.038552 0.317303
v 0.043257 -0.037651 0.331770
v 0.037431 -0.026917 0.328938
v 0.037431 -0.047483 0.317303
v 0.043257 -0.048385 0.331770
v 0.034727 -0.056414 0.320007
v 0.037431 -0.059119 0.332671
v 0.043257 -0.037651 0.342504
v 0.037431 -0.026917 0.341602
v 0.043257 -0.048385 0.342504
v 0.037431 -0.059119 0.341602
v 0.037431 -0.038552 0.353238
v 0.034727 -0.029621 0.350534
v 0.037431 -0.047483 0.353238
v 0.034727 -0.056414 0.350534
v 0.025795 -0.059119 0.317303
v 0.026697 -0.064945 0.331770
v 0.016864 -0.059119 0.317303
v 0.015963 -0.064945 0.331770
v 0.007933 -0.056414 0.320007
v 0.005229 -0.059119 0.332671
v 0.026697 -0.064945 0.342504
v 0.015963 -0.064945 0.342504
v 0.005229 -0.059119 0.341602
v 0.025795 -0.059119 0.353238
v 0.016864 -0.059119 0.353238
v 0.007933 -0.056414 0.350534
v 0.005229 -0.047483 0.317303
v -0.000598 -0.048385 0.328037
v 0.005229 -0.038552 0.317303
v -0.000598 -0.037651 0.328037
v 0.007933 -0.029621 0.320007
v 0.005229 -0.026917 0.328938
v -0.000598 -0.048385 0.338771
v -0.000598 -0.037651 0.338771
v 0.005229 -0.026917 0.337870
v 0.005229 -0.047483 0.353238
v 0.005229 -0.038552 0.353238
v 0.007933 -0.029621 0.346801
v 0.016864 -0.026917 0.317303
v 0.015963 -0.021090 0.328037
v 0.025795 -0.026917 0.317303
v 0.026697 -0.021090 0.328037
v 0.015963 -0.021090 0.338771
v 0.026697 -0.021090 0.338771
v 0.016864 -0.026917 0.353238
v 0.025795 -0.026917 0.353238
v 0.015963 -0.037651 0.311477
v 0.015963 -0.048385 0.311477
v 0.026697 -0.037651 0.311477
v 0.026697 -0.048385 0.311477
v 0.026697 -0.037651 0.359064
v 0.026697 -0.048385 0.359064
v 0.015963 -0.037651 0.359064
v 0.015963 -0.048385 0.359064
v 0.034727 0.027018 0.320007
v 0.037431 0.024314 0.328938
v 0.043257 0.035048 0.331770
v 0.037431 0.035950 0.317303
v 0.043257 0.045782 0.331770
v 0.037431 0.044881 0.317303
v 0.037431 0.056516 0.332671
v 0.034727 0.053812 0.320007
v 0.037431 0.024314 0.341602
v 0.043257 0.035048 0.342504
v 0.043257 0.045782 0.342504
v 0.037431 0.056516 0.341602
v 0.034727 0.027018 0.350534
v 0.037431 0.035950 0.353238
v 0.037431 0.044881 0.353238
v 0.034727 0.053812 0.350534
v 0.026697 0.062343 0.331770
v 0.025795 0.056516 0.317303
v 0.015963 0.062343 0.331770
v 0.016864 0.056516 0.317303
v 0.005229 0.056516 0.328938
v 0.007933 0.053812 0.320007
v 0.026697 0.062343 0.342504
v 0.015963 0.062343 0.342504
v 0.005229 0.056516 0.341602
v 0.025795 0.056516 0.353238
v 0.016864 0.056516 0.353238
v 0.007933 0.053812 0.350534
v -0.000598 0.045782 0.328037
v 0.005229 0.044881 0.317303
v -0.000598 0.035048 0.328037
v 0.005229 0.035950 0.317303
v 0.005229 0.024314 0.328938
v 0.007933 0.027018 0.320007
v -0.000598 0.045782 0.338771
v -0.000598 0.035048 0.338771
v 0.005229 0.024314 0.337870
v 0.005229 0.044881 0.353238
v 0.005229 0.035950 0.353238
v 0.007933 0.027018 0.346801
v 0.015963 0.018488 0.328037
v 0.016864 0.024314 0.317303
v 0.026697 0.018488 0.328037
v 0.025795 0.024314 0.317303
v 0.015963 0.018488 0.338771
v 0.026697 0.018488 0.338771
v 0.016864 0.024314 0.353238
v 0.025795 0.024314 0.353238
v 0.015963 0.035048 0.311477
v 0.015963 0.045782 0.311477
v 0.026697 0.035048 0.311477
v 0.026697 0.045782 0.311477
v 0.026697 0.035048 0.359064
v 0.026697 0.045782 0.359064
v 0.015963 0.035048 0.359064
v 0.015963 0.045782 0.359064
v 0.113468 -0.001301 0.125064
v 0.091787 -0.001301 0.192372
v -0.022407 -0.061527 0.467442
v -0.015329 -0.084410 0.430893
v 0.067892 -0.001301 0.224749
v 0.077081 0.000855 0.240367
v -0.042146 -0.004255 0.425511
v -0.029485 -0.019432 0.453874
v 0.105308 0.000855 0.257342
v -0.033780 -0.048331 0.426738
v -0.025415 -0.081053 0.398349
v -0.022407 0.058924 0.467442
v -0.015329 0.081807 0.430893
v -0.029485 0.016829 0.453874
v -0.042146 0.001653 0.425511
v -0.033780 0.045728 0.426739
v -0.025415 0.078451 0.398349
vn 0.0000 -1.0000 -0.0000
vn 1.0000 0.0000 0.0000
vn 0.0000 1.0000 0.0000
vn 0.0000 0.0000 -1.0000
vn -0.0000 0.0000 1.0000
vn 0.6948 -0.6362 0.3355
vn 0.6050 0.0265 -0.7958
vn -0.5042 -0.6914 -0.5175
vn 0.6177 0.5052 0.6027
vn -0.3973 0.7185 -0.5709
vn 0.2277 -0.4705 -0.8525
vn -0.2277 0.4705 0.8525
vn 0.4530 -0.7238 0.5205
vn -0.9726 -0.1525 -0.1756
vn -0.0717 0.8650 -0.4966
vn 0.9282 0.3694 0.0441
vn 0.6252 -0.5047 -0.5954
vn 0.3205 0.4714 0.8216
vn -0.3946 -0.9183 0.0326
vn 0.9126 -0.4074 0.0356
vn 0.4022 -0.1835 0.8970
vn 0.4002 0.9164 0.0000
vn 0.6948 0.6362 0.3355
vn 0.6050 -0.0265 -0.7958
vn -0.5042 0.6914 -0.5175
vn 0.6177 -0.5052 0.6027
vn -0.3973 -0.7185 -0.5709
vn 0.2277 0.4705 -0.8525
vn -0.2277 -0.4705 0.8525
vn 0.4530 0.7238 0.5205
vn -0.9726 0.1525 -0.1756
vn -0.0717 -0.8650 -0.4966
vn 0.9282 -0.3694 0.0441
vn 0.4671 0.1354 -0.8738
vn 0.4671 -0.1354 -0.8738
vn -0.3946 0.9183 0.0326
vn 0.9126 0.4074 0.0356
vn 0.4022 0.1835 0.8970
vn 0.4002 -0.9164 0.0000
vn 0.8806 -0.4696 -0.0629
vn 0.9611 -0.2378 -0.1406
vn 0.8806 0.4696 -0.0629
vn 0.9611 0.2378 -0.1406
vn 0.3205 -0.4714 0.8216
vn 0.6252 0.5047 -0.5954
vn 0.4166 0.8718 0.2576
vn 0.4166 -0.8718 0.2576
vn 0.2887 0.4964 0.8187
vn 0.2887 -0.4964 0.8187
vn 0.8539 0.3680 -0.3680
vn 0.9276 0.0000 -0.3736
vn 0.8454 -0.4258 -0.3224
vn 0.8789 0.4771 0.0000
vn 0.8789 -0.4771 0.0000
vn 0.7995 0.4247 0.4247
vn 0.8789 0.0000 0.4771
vn 0.7995 -0.4247 0.4247
vn 0.4258 -0.8454 -0.3224
vn 0.0000 -0.9276 -0.3736
vn -0.4258 -0.8454 -0.3224
vn 0.4771 -0.8789 0.0000
vn -0.4771 -0.8789 -0.0000
vn 0.4247 -0.7995 0.4247
vn 0.0000 -0.8789 0.4771
vn -0.4247 -0.7995 0.4247
vn -0.7968 -0.4818 -0.3647
vn -0.8789 0.0000 -0.4771
vn -0.7995 0.4247 -0.4247
vn -0.8789 -0.4771 -0.0000
vn -1.0000 0.0000 -0.0000
vn -0.8789 0.4771 -0.0000
vn -0.8539 -0.3680 0.3680
vn -0.9276 0.0000 0.3736
vn -0.7968 0.4818 0.3647
vn -0.4247 0.7995 -0.4247
vn 0.0000 0.8789 -0.4771
vn 0.4247 0.7995 -0.4247
vn -0.4771 0.8789 -0.0000
vn 0.4771 0.8789 0.0000
vn -0.4818 0.7968 0.3647
vn 0.0000 0.9276 0.3736
vn 0.3680 0.8539 0.3680
vn -0.4247 0.4247 -0.7995
vn -0.4771 0.0000 -0.8789
vn -0.4247 -0.4247 -0.7995
vn 0.0000 0.4771 -0.8789
vn 0.0000 -0.4771 -0.8789
vn 0.4247 0.4247 -0.7995
vn 0.4771 0.0000 -0.8789
vn 0.4247 -0.4247 -0.7995
vn 0.4247 0.4247 0.7995
vn 0.4771 0.0000 0.8789
vn 0.4247 -0.4247 0.7995
vn 0.0000 0.4771 0.8789
vn 0.0000 -0.4771 0.8789
vn -0.5188 0.5188 0.6794
vn -0.4771 0.0000 0.8789
vn -0.4247 -0.4247 0.7995
vn 0.8539 -0.3680 -0.3680
vn 0.8454 0.4258 -0.3224
vn 0.4258 0.8454 -0.3224
vn 0.0000 0.9276 -0.3736
vn -0.3680 0.8539 -0.3680
vn 0.4247 0.7995 0.4247
vn 0.0000 0.8789 0.4771
vn -0.4247 0.7995 0.4247
vn -0.7995 -0.4247 -0.4247
vn -0.8539 0.3680 0.3680
vn -0.7968 -0.4818 0.3647
vn -0.4247 -0.7995 -0.4247
vn 0.0000 -0.8789 -0.4771
vn 0.4247 -0.7995 -0.4247
vn -0.4818 -0.7968 0.3647
vn -0.0000 -0.9276 0.3736
vn 0.3680 -0.8539 0.3680
vn -0.5188 -0.5188 0.6794
vn -0.4247 0.4247 0.7995
vn -0.4210 -0.8934 0.1568
vn -0.9172 -0.3187 0.2391
vn 0.7775 -0.6130 0.1401
vn 0.4917 -0.6849 0.5377
vn 0.4252 -0.2893 0.8576
vn 0.5626 -0.8266 -0.0111
vn -0.1761 -0.8514 0.4941
vn -0.6991 -0.2941 0.6517
vn 0.5103 -0.7982 0.3202
vn -0.2580 -0.6228 -0.7387
vn 0.7097 0.2239 -0.6680
vn -0.6228 -0.2580 -0.7387
vn 0.2580 -0.6228 -0.7387
vn 0.3772 -0.9078 0.1835
vn -0.9027 -0.3762 0.2090
vn -0.3907 -0.9067 0.1589
vn 0.4191 -0.6458 0.6382
vn -0.3126 -0.9499 -0.0073
vn 0.5475 -0.7455 0.3802
vn -0.3999 -0.8006 -0.4462
vn 0.9490 0.2366 0.2084
vn 0.5905 -0.7817 0.2005
vn 0.5285 -0.6053 0.5953
vn -0.9398 -0.1184 0.3206
vn -0.8701 -0.4547 0.1902
vn -0.9022 -0.3761 0.2112
vn -0.9032 -0.3719 0.2141
vn -0.6640 -0.3526 0.6594
vn 0.4520 -0.2907 0.8434
vn -0.9007 -0.3826 0.2060
vn -0.9026 -0.3804 0.2017
vn -0.9761 -0.2157 -0.0253
vn -0.9804 -0.1959 -0.0188
vn 0.8051 -0.0427 -0.5915
vn 0.6821 -0.6365 -0.3599
vn 0.6827 -0.2906 0.6704
vn 0.3638 -0.6487 -0.6685
vn -0.4210 0.8934 0.1568
vn -0.9172 0.3187 0.2391
vn 0.7775 0.6130 0.1401
vn 0.4745 0.6980 0.5363
vn 0.4192 0.2906 0.8601
vn 0.5236 0.8500 -0.0575
vn -0.1761 0.8513 0.4941
vn -0.6991 0.2941 0.6517
vn 0.5103 0.7982 0.3202
vn -0.2580 0.6228 -0.7387
vn 0.7097 -0.2239 -0.6680
vn -0.6228 0.2580 -0.7387
vn 0.2580 0.6228 -0.7387
vn 0.3772 0.9078 0.1835
vn -0.9027 0.3762 0.2090
vn -0.3907 0.9067 0.1589
vn 0.4191 0.6458 0.6382
vn -0.3126 0.9499 -0.0073
vn 0.5475 0.7455 0.3802
vn -0.3999 0.8006 -0.4462
vn 0.9490 -0.2366 0.2084
vn 0.5905 0.7817 0.2005
vn 0.5285 0.6052 0.5953
vn -0.9398 0.1184 0.3206
vn -0.8701 0.4547 0.1902
vn -0.9022 0.3761 0.2112
vn -0.9032 0.3719 0.2141
vn -0.6640 0.3526 0.6594
vn 0.4457 0.2919 0.8462
vn -0.9007 0.3826 0.2060
vn -0.9026 0.3804 0.2017
vn -0.9761 0.2157 -0.0253
vn -0.9804 0.1959 -0.0188
vn 0.8051 0.0427 -0.5915
vn 0.6821 0.6365 -0.3599
vn 0.6827 0.2906 0.6704
vn 0.3638 0.6487 -0.6685
vn 0.8996 -0.3408 0.2730
vn 0.2712 -0.7862 0.5553
vn 0.9048 -0.2255 0.3613
vn 0.9099 -0.3687 0.1901
vn -0.3818 0.7506 -0.5392
vn -0.1475 0.1742 -0.9736
vn 0.6323 -0.3074 -0.7111
vn 0.0988 0.8951 0.4349
vn 0.5212 -0.2292 -0.8221
vn 0.8861 0.4346 -0.1614
vn 0.2513 -0.9518 -0.1760
vn 0.9519 0.1223 -0.2810
vn 0.1748 0.3223 0.9304
vn 0.9633 0.2157 -0.1599
vn 0.2514 -0.8275 -0.5021
vn 0.9446 0.3022 -0.1283
vn 0.0299 0.9957 0.0875
vn 0.8996 0.3408 0.2730
vn 0.2712 0.7862 0.5553
vn 0.9048 0.2255 0.3613
vn 0.9099 0.3687 0.1901
vn -0.3818 -0.7506 -0.5392
vn -0.1475 -0.1742 -0.9736
vn 0.6082 0.3204 -0.7262
vn 0.0988 -0.8951 0.4348
vn 0.5122 0.2450 -0.8232
vn 0.8861 -0.4346 -0.1614
vn 0.2513 0.9518 -0.1760
vn 0.9519 -0.1223 -0.2810
vn 0.1748 -0.3223 0.9304
vn 0.9633 -0.2157 -0.1599
vn 0.2514 0.8275 -0.5021
vn 0.9446 -0.3022 -0.1283
vn 0.0300 -0.9957 0.0875
vn 0.8343 -0.1205 -0.5379
vn 0.8343 0.1205 -0.5379
usemtl F8BBD0
s off
f 1//1 4//1 3//1 2//1
f 4//2 6//2 5//2 3//2
f 6//3 8//3 7//3 5//3
f 4//4 1//4 8//4 6//4
f 5//5 7//5 2//5 3//5
f 7//5 10//5 9//5 2//5
f 11//6 14//6 13//6 12//6
f 15//7 13//7 14//7 16//7
f 17//8 16//8 14//8 11//8
f 12//9 13//9 15//9 18//9
f 18//10 15//10 16//10 17//10
f 19//11 22//11 21//11 20//11
f 23//12 26//12 25//12 24//12
f 20//13 26//13 23//13 19//13
f 19//14 23//14 24//14 22//14
f 22//15 24//15 25//15 21//15
f 21//16 25//16 26//16 20//16
f 27//17 30//17 29//17 28//17
f 31//18 34//18 33//18 32//18
f 35//19 38//19 37//19 36//19
f 37//20 38//20 40//20 39//20
f 36//21 37//21 39//21 41//21
f 41//22 39//22 40//22 42//22
f 42//4 40//4 38//4 35//4
f 43//23 46//23 45//23 44//23
f 47//24 48//24 44//24 45//24
f 49//25 43//25 44//25 48//25
f 46//26 50//26 47//26 45//26
f 50//27 49//27 48//27 47//27
f 51//28 54//28 53//28 52//28
f 55//29 58//29 57//29 56//29
f 54//30 51//30 55//30 56//30
f 51//31 52//31 58//31 55//31
f 52//32 53//32 57//32 58//32
f 53//33 54//33 56//33 57//33
f 59//34 62//34 61//34 60//34
f 60//35 61//35 30//35 27//35
f 63//36 66//36 65//36 64//36
f 65//37 68//37 67//37 64//37
f 66//38 69//38 68//38 65//38
f 69//39 70//39 67//39 68//39
f 70//4 63//4 64//4 67//4
f 29//40 30//40 72//40 71//40
f 61//41 34//41 72//41 30//41
f 73//42 74//42 33//42 62//42
f 61//43 62//43 33//43 34//43
f 75//44 72//44 34//44 31//44
f 76//45 73//45 62//45 59//45
f 77//46 74//46 73//46 76//46
f 28//47 29//47 71//47 78//47
f 32//48 33//48 74//48 77//48
f 78//49 71//49 72//49 75//49
usemtl 1A1A1A
f 168//50 171//50 170//50 169//50
f 169//51 170//51 173//51 172//51
f 172//52 173//52 175//52 174//52
f 171//53 177//53 176//53 170//53
f 170//2 176//2 178//2 173//2
f 173//54 178//54 179//54 175//54
f 177//55 181//55 180//55 176//55
f 176//56 180//56 182//56 178//56
f 178//57 182//57 183//57 179//57
f 174//58 175//58 185//58 184//58
f 184//59 185//59 187//59 186//59
f 186//60 187//60 189//60 188//60
f 175//61 179//61 190//61 185//61
f 185//1 190//1 191//1 187//1
f 187//62 191//62 192//62 189//62
f 179//63 183//63 193//63 190//63
f 190//64 193//64 194//64 191//64
f 191//65 194//65 195//65 192//65
f 188//66 189//66 197//66 196//66
f 196//67 197//67 199//67 198//67
f 198//68 199//68 201//68 200//68
f 189//69 192//69 202//69 197//69
f 197//70 202//70 203//70 199//70
f 199//71 203//71 204//71 201//71
f 192//72 195//72 205//72 202//72
f 202//73 205//73 206//73 203//73
f 203//74 206//74 207//74 204//74
f 200//75 201//75 209//75 208//75
f 208//76 209//76 211//76 210//76
f 210//77 211//77 171//77 168//77
f 201//78 204//78 212//78 209//78
f 209//3 212//3 213//3 211//3
f 211//79 213//79 177//79 171//79
f 204//80 207//80 214//80 212//80
f 212//81 214//81 215//81 213//81
f 213//82 215//82 181//82 177//82
f 200//83 208//83 216//83 198//83
f 198//84 216//84 217//84 196//84
f 196//85 217//85 186//85 188//85
f 208//86 210//86 218//86 216//86
f 216//4 218//4 219//4 217//4
f 217//87 219//87 184//87 186//87
f 210//88 168//88 169//88 218//88
f 218//89 169//89 172//89 219//89
f 219//90 172//90 174//90 184//90
f 181//91 215//91 220//91 180//91
f 180//92 220//92 221//92 182//92
f 182//93 221//93 193//93 183//93
f 215//94 214//94 222//94 220//94
f 220//5 222//5 223//5 221//5
f 221//95 223//95 194//95 193//95
f 214//96 207//96 206//96 222//96
f 222//97 206//97 205//97 223//97
f 223//98 205//98 195//98 194//98
f 224//99 227//99 226//99 225//99
f 227//51 229//51 228//51 226//51
f 229//100 231//100 230//100 228//100
f 225//54 226//54 233//54 232//54
f 226//2 228//2 234//2 233//2
f 228//53 230//53 235//53 234//53
f 232//57 233//57 237//57 236//57
f 233//56 234//56 238//56 237//56
f 234//55 235//55 239//55 238//55
f 231//101 241//101 240//101 230//101
f 241//102 243//102 242//102 240//102
f 243//103 245//103 244//103 242//103
f 230//79 240//79 246//79 235//79
f 240//3 242//3 247//3 246//3
f 242//78 244//78 248//78 247//78
f 235//104 246//104 249//104 239//104
f 246//105 247//105 250//105 249//105
f 247//106 248//106 251//106 250//106
f 245//68 253//68 252//68 244//68
f 253//67 255//67 254//67 252//67
f 255//107 257//107 256//107 254//107
f 244//71 252//71 258//71 248//71
f 252//70 254//70 259//70 258//70
f 254//69 256//69 260//69 259//69
f 248//108 258//108 261//108 251//108
f 258//73 259//73 262//73 261//73
f 259//109 260//109 263//109 262//109
f 257//110 265//110 264//110 256//110
f 265//111 267//111 266//111 264//111
f 267//112 224//112 225//112 266//112
f 256//62 264//62 268//62 260//62
f 264//1 266//1 269//1 268//1
f 266//61 225//61 232//61 269//61
f 260//113 268//113 270//113 263//113
f 268//114 269//114 271//114 270//114
f 269//115 232//115 236//115 271//115
f 257//85 255//85 272//85 265//85
f 255//84 253//84 273//84 272//84
f 253//83 245//83 243//83 273//83
f 265//87 272//87 274//87 267//87
f 272//4 273//4 275//4 274//4
f 273//86 243//86 241//86 275//86
f 267//90 274//90 227//90 224//90
f 274//89 275//89 229//89 227//89
f 275//88 241//88 231//88 229//88
f 236//93 237//93 276//93 271//93
f 237//92 238//92 277//92 276//92
f 238//91 239//91 249//91 277//91
f 271//95 276//95 278//95 270//95
f 276//5 277//5 279//5 278//5
f 277//94 249//94 250//94 279//94
f 270//116 278//116 262//116 263//116
f 278//97 279//97 261//97 262//97
f 279//117 250//117 251//117 261//117
usemtl 795548
f 79//118 82//118 81//118 80//118
f 83//119 86//119 85//119 84//119
f 87//120 90//120 89//120 88//120
f 91//121 28//121 78//121 92//121
f 93//122 75//122 31//122 94//122
f 95//123 96//123 28//123 91//123
f 82//124 98//124 97//124 81//124
f 86//125 100//125 99//125 85//125
f 87//126 101//126 98//126 82//126
f 102//127 105//127 104//127 103//127
f 106//128 41//128 42//128 107//128
f 108//129 109//129 105//129 102//129
f 103//130 104//130 111//130 110//130
f 109//4 113//4 112//4 105//4
f 104//4 115//4 114//4 111//4
f 105//4 112//4 115//4 104//4
f 111//4 114//4 116//4 107//4
f 112//4 117//4 115//4
f 114//4 117//4 116//4
f 118//4 117//4 112//4 113//4
f 115//4 117//4 114//4
f 110//131 88//131 79//131 103//131
f 108//132 83//132 84//132 119//132
f 103//133 79//133 80//133 102//133
f 82//134 120//134 90//134 87//134
f 79//135 121//135 120//135 82//135
f 120//136 11//136 12//136 90//136
f 121//137 17//137 11//137 120//137
f 90//138 12//138 18//138 89//138
f 91//139 98//139 101//139 95//139
f 92//140 97//140 98//140 91//140
f 122//141 125//141 124//141 123//141
f 126//142 127//142 125//142 122//142
f 102//143 80//144 83//143 108//143
f 128//4 118//4 113//4 109//4
f 119//129 128//129 109//129 108//129
f 81//145 97//145 100//145 86//145
f 92//146 78//146 75//146 93//146
f 80//147 81//148 86//148 83//148
f 97//149 126//149 122//149 100//149
f 100//150 122//150 123//150 99//150
f 96//151 60//151 27//151
f 27//152 28//152 96//152
f 110//153 36//153 41//153 106//153
f 107//4 42//4 35//4 111//4
f 111//154 35//154 36//154 110//154
f 129//155 132//155 131//155 130//155
f 133//156 84//156 85//156 134//156
f 135//157 138//157 137//157 136//157
f 139//158 140//158 77//158 76//158
f 141//159 94//159 31//159 32//159
f 142//160 139//160 76//160 143//160
f 130//161 131//161 145//161 144//161
f 134//162 85//162 99//162 146//162
f 135//163 130//163 144//163 147//163
f 148//164 151//164 150//164 149//164
f 106//165 107//165 70//165 69//165
f 152//166 148//166 149//166 153//166
f 151//167 155//167 154//167 150//167
f 153//4 149//4 157//4 156//4
f 150//4 154//4 159//4 158//4
f 149//4 150//4 158//4 157//4
f 154//4 107//4 116//4 159//4
f 157//4 158//4 117//4
f 159//4 116//4 117//4
f 118//4 156//4 157//4 117//4
f 158//4 159//4 117//4
f 155//168 151//168 129//168 138//168
f 152//169 119//169 84//169 133//169
f 151//170 148//170 132//170 129//170
f 130//171 135//171 136//171 160//171
f 129//172 130//172 160//172 161//172
f 160//173 136//173 46//173 43//173
f 161//174 160//174 43//174 49//174
f 136//175 137//175 50//175 46//175
f 139//176 142//176 147//176 144//176
f 140//177 139//177 144//177 145//177
f 162//178 165//178 164//178 163//178
f 166//179 162//179 163//179 167//179
f 148//180 152//180 133//180 132//181
f 128//4 153//4 156//4 118//4
f 119//166 152//166 153//166 128//166
f 131//182 134//182 146//182 145//182
f 140//183 141//183 32//183 77//183
f 132//184 133//185 134//185 131//185
f 145//186 146//186 162//186 166//186
f 146//187 99//187 165//187 162//187
f 143//188 59//188 60//188
f 59//189 143//189 76//189
f 155//190 106//190 69//190 66//190
f 107//4 154//4 63//4 70//4
f 154//191 155//191 66//191 63//191
usemtl FFCC88
f 280//192 281//192 87//192 88//192
f 282//193 125//193 127//193 283//193
f 281//194 284//194 101//194 87//194
f 106//195 280//195 88//195 110//195
f 89//196 18//196 17//196 121//196
f 88//197 89//197 121//197 79//197
f 95//198 101//198 284//198 285//198
f 123//199 124//199 287//199 286//199
f 285//200 288//200 96//200 95//200
f 289//201 282//201 283//201 290//201
f 290//202 283//202 127//202 126//202
f 286//203 287//203 282//203 289//203
f 287//204 124//204 125//204 282//204
f 94//205 286//205 289//205 93//205
f 92//206 290//206 126//206 97//206
f 93//207 289//207 290//207 92//207
f 99//208 123//208 286//208 94//208
f 280//209 138//209 135//209 281//209
f 291//210 292//210 167//210 163//210
f 281//211 135//211 147//211 284//211
f 106//212 155//212 138//212 280//212
f 137//213 161//213 49//213 50//213
f 138//214 129//214 161//214 137//214
f 142//215 285//215 284//215 147//215
f 165//216 294//216 293//216 164//216
f 285//217 142//217 143//217 288//217
f 295//218 296//218 292//218 291//218
f 296//219 166//219 167//219 292//219
f 294//220 295//220 291//220 293//220
f 293//221 291//221 163//221 164//221
f 94//222 141//222 295//222 294//222
f 140//223 145//223 166//223 296//223
f 141//224 140//224 296//224 295//224
f 99//225 94//225 294//225 165//225
f 60//226 96//226 288//226
f 60//227 288//227 143//227
